<svg width="31" height="31" viewBox="0 0 31 31" fill="none" xmlns="http://www.w3.org/2000/svg">
<path d="M0 6C0 2.68629 2.68629 0 6 0H25C28.3137 0 31 2.68629 31 6V25C31 28.3137 28.3137 31 25 31H6C2.68629 31 0 28.3137 0 25V6Z" fill="#00C7CD"/>
<path d="M24.0723 12.15C22.4557 15.1833 20.289 17.7333 17.5723 19.8C17.889 20.1667 18.189 20.5333 18.4723 20.9C18.7723 21.25 19.1057 21.6917 19.4723 22.225L16.8473 24.25C15.9807 22.7667 15.064 21.5083 14.0973 20.475C13.1473 19.425 11.9973 18.5 10.6473 17.7L11.8723 15.55C12.6223 15.9333 13.264 16.3 13.7973 16.65C14.3307 16.9833 14.8557 17.3583 15.3723 17.775C16.3723 17.125 17.2723 16.3917 18.0723 15.575C18.8723 14.7417 19.5223 13.8583 20.0223 12.925H7.52232V10.275H21.5973L24.0723 12.15Z" fill="white"/>
</svg>
