<svg width="18" height="21" viewBox="0 0 18 21" fill="none" xmlns="http://www.w3.org/2000/svg">
<path d="M8.06207 12.2228H13.9103M8.06207 16.0622H13.9103M6.2 11.5556L5.17509 12.5689C4.80237 12.9374 4.17865 12.8357 3.94228 12.3679V12.3679C3.89393 12.2722 3.86603 12.1675 3.86035 12.0604L3.85714 12M3.86897 15.3731L5.30345 16.7513M5.30345 15.3731L3.86897 16.7513M4.42069 3.55959V3.37134C4.42069 2.82287 4.86532 2.37824 5.41379 2.37824H5.71778C6.09837 2.37824 6.4069 2.06971 6.4069 1.68912V1.68912C6.4069 1.30853 6.71543 1 7.09602 1H10.6833C11.0639 1 11.3724 1.30853 11.3724 1.68912V1.68912C11.3724 2.06971 11.6809 2.37824 12.0615 2.37824H12.5793C13.1316 2.37824 13.5793 2.82595 13.5793 3.37824V3.55959M4.42069 3.55959V3.64249C4.42069 4.19477 4.86841 4.64249 5.42069 4.64249H12.5793C13.1316 4.64249 13.5793 4.19477 13.5793 3.64249V3.55959M4.42069 3.55959H2C1.44771 3.55959 1 4.0073 1 4.55959V19C1 19.5523 1.44772 20 2 20H16C16.5523 20 17 19.5523 17 19V4.55958C17 4.0073 16.5523 3.55959 16 3.55959H13.5793M8.06207 8.28497H13.9103M6.2 7.68518L5.12707 8.63983C4.76417 8.96273 4.19573 8.86738 3.95805 8.44375V8.44375C3.89949 8.33937 3.86638 8.22265 3.86142 8.10308L3.85714 8" stroke="#2D3535" stroke-linecap="round" stroke-linejoin="round"/>
</svg>
